<?xml version="1.0" encoding="UTF-8"?>
<svg width="27px" height="27px" viewBox="0 0 27 27" version="1.1" xmlns="http://www.w3.org/2000/svg" xmlns:xlink="http://www.w3.org/1999/xlink">
    <!-- Generator: Sketch 47.1 (45422) - http://www.bohemiancoding.com/sketch -->
    <title>insta</title>
    <desc>Created with Sketch.</desc>
    <defs></defs>
    <g id="Page-1" stroke="none" stroke-width="1" fill="none" fill-rule="evenodd">
        <g id="insta" fill-rule="nonzero" fill="#444444">
            <g id="instagram-logo">
                <path d="M19.5488164,0 L7.45086418,0 C3.34246016,0 0,3.34261987 0,7.45102388 L0,19.5489761 C0,23.6575398 3.34246016,27 7.45086418,27 L19.5488164,27 C23.6575398,27 27,23.6573801 27,19.5489761 L27,7.45102388 C27.0001597,3.34261987 23.6575398,0 19.5488164,0 Z M24.6045888,19.5489761 C24.6045888,22.3366221 22.3366221,24.6044291 19.5489761,24.6044291 L7.45086418,24.6044291 C4.66337793,24.6045888 2.39557086,22.3366221 2.39557086,19.5489761 L2.39557086,7.45102388 C2.39557086,4.66353764 4.66337793,2.39557086 7.45086418,2.39557086 L19.5488164,2.39557086 C22.3364624,2.39557086 24.6044291,4.66353764 24.6044291,7.45102388 L24.6044291,19.5489761 L24.6045888,19.5489761 Z" id="Shape"></path>
                <path d="M13.2985075,6.44776119 C9.52094907,6.44776119 6.44776119,9.52101962 6.44776119,13.2986647 C6.44776119,17.0761526 9.52094907,20.1492537 13.2985075,20.1492537 C17.0760659,20.1492537 20.1492537,17.0761526 20.1492537,13.2986647 C20.1492537,9.52101962 17.0760659,6.44776119 13.2985075,6.44776119 Z M13.2985075,17.7901324 C10.8218093,17.7901324 8.80667114,15.7752625 8.80667114,13.2985075 C8.80667114,10.8215952 10.821652,8.80656803 13.2985075,8.80656803 C15.7753629,8.80656803 17.7903438,10.8215952 17.7903438,13.2985075 C17.7903438,15.7752625 15.7752056,17.7901324 13.2985075,17.7901324 Z" id="Shape"></path>
                <path d="M20.7537313,4.43283582 C20.2772931,4.43283582 19.8092626,4.62571913 19.4727883,4.96367707 C19.1346655,5.29998643 18.9402985,5.76818182 18.9402985,6.24626866 C18.9402985,6.72287178 19.1348304,7.19090231 19.4727883,7.52886024 C19.8090977,7.86516961 20.2772931,8.05970149 20.7537313,8.05970149 C21.2318182,8.05970149 21.698365,7.86516961 22.0363229,7.52886024 C22.3742809,7.19090231 22.5671642,6.72270692 22.5671642,6.24626866 C22.5671642,5.76818182 22.3742809,5.29998643 22.0363229,4.96367707 C21.7000136,4.62571913 21.2318182,4.43283582 20.7537313,4.43283582 Z" id="Shape"></path>
            </g>
        </g>
    </g>
</svg>