<?xml version="1.0" encoding="UTF-8"?>
<svg width="120px" height="120px" viewBox="0 0 120 120" version="1.1" xmlns="http://www.w3.org/2000/svg" xmlns:xlink="http://www.w3.org/1999/xlink">
    <!-- Generator: Sketch 47.1 (45422) - http://www.bohemiancoding.com/sketch -->
    <title>marketing</title>
    <desc>Created with Sketch.</desc>
    <defs></defs>
    <g id="Page-1" stroke="none" stroke-width="1" fill="none" fill-rule="evenodd">
        <g id="marketing" fill-rule="nonzero" stroke="#444444" fill="#444444">
            <g transform="translate(19.000000, 29.000000)" id="Group">
                <g>
                    <path d="M73.0222222,16.9466667 C73.2288889,16.9466667 73.5044444,16.8777778 73.7111111,16.74 L81.4266667,12.2622222 C82.1155556,11.8488889 82.3222222,11.0222222 81.9088889,10.4022222 C81.4955556,9.71333333 80.6688889,9.50666667 80.0488889,9.92 L72.3333333,14.3288889 C71.6444444,14.7422222 71.4377778,15.5688889 71.8511111,16.1888889 C72.0577778,16.6711111 72.54,16.9466667 73.0222222,16.9466667 Z" id="Shape"></path>
                    <path d="M81.3577778,38.5777778 L73.7111111,34.1688889 C73.0222222,33.8244444 72.1955556,34.0311111 71.8511111,34.6511111 C71.5066667,35.2711111 71.7133333,36.1666667 72.3333333,36.5111111 L80.0488889,40.92 C80.2555556,41.0577778 80.5311111,41.1266667 80.7377778,41.1266667 C81.22,41.1266667 81.7022222,40.8511111 81.9088889,40.4377778 C82.2533333,39.7488889 82.0466667,38.9222222 81.3577778,38.5777778 Z" id="Shape"></path>
                    <path d="M81.2888889,24.0422222 C81.2888889,24.0422222 81.2888889,24.0422222 81.2888889,24.0422222 L72.4022222,24.1111111 C71.6444444,24.1111111 71.0244444,24.7311111 71.0244444,25.4888889 C71.0244444,26.2466667 71.6444444,26.8666667 72.4022222,26.8666667 C72.4022222,26.8666667 72.4022222,26.8666667 72.4022222,26.8666667 L81.2888889,26.7977778 C82.0466667,26.7977778 82.6666667,26.1777778 82.6666667,25.42 C82.6666667,24.5933333 82.0466667,24.0422222 81.2888889,24.0422222 Z" id="Shape"></path>
                    <path d="M63.6533333,21.08 L60.8288889,21.08 L60.8288889,1.58444444 C60.8288889,1.03333333 60.4844444,0.551111111 60.0022222,0.344444444 C59.52,0.137777778 58.9,0.206666667 58.5555556,0.551111111 C49.7377778,8.26666667 38.44,12.5377778 26.7977778,12.5377778 L13.02,12.5377778 C5.85555556,12.5377778 0,18.3933333 0,25.5577778 L0,26.5222222 C0,33.6866667 5.85555556,39.5422222 13.02,39.5422222 C13.1577778,39.5422222 13.2955556,39.5422222 13.4333333,39.4733333 L18.2555556,39.4733333 L18.2555556,55.3177778 C18.2555556,57.04 18.9444444,58.6244444 20.1155556,59.8644444 C21.2866667,61.0355556 22.94,61.7244444 24.5933333,61.7244444 C24.5933333,61.7244444 24.5933333,61.7244444 24.6622222,61.7244444 C28.1755556,61.7244444 31.0688889,58.8311111 31.0688889,55.2488889 L31.0688889,43.6066667 C31.0688889,42.8488889 30.4488889,42.2288889 29.6911111,42.2288889 C28.9333333,42.2288889 28.3133333,42.8488889 28.3133333,43.6066667 L28.3133333,55.2488889 C28.3133333,57.3155556 26.66,58.9688889 24.6622222,58.9688889 C23.6977778,58.9688889 22.8022222,58.6244444 22.1133333,57.9355556 C21.4244444,57.2466667 21.0111111,56.3511111 21.0111111,55.3177778 L21.0111111,39.4733333 L27.1422222,39.4733333 C38.6466667,39.4733333 49.8066667,43.5377778 58.5555556,50.9088889 C58.8311111,51.1155556 59.1066667,51.2533333 59.4511111,51.2533333 C59.6577778,51.2533333 59.8644444,51.1844444 60.0022222,51.1155556 C60.4844444,50.9088889 60.8288889,50.4266667 60.8288889,49.8755556 L60.8288889,30.3111111 L63.7222222,30.3111111 C66.2711111,30.3111111 68.3377778,28.2444444 68.3377778,25.6955556 C68.3377778,24.4555556 67.8555556,23.2844444 66.96,22.4577778 C66.0644444,21.5622222 64.8933333,21.08 63.6533333,21.08 Z M2.75555556,26.5222222 L2.75555556,25.5577778 C2.75555556,20.3911111 6.61333333,16.0511111 11.6422222,15.3622222 L11.6422222,36.6488889 C6.61333333,36.0288889 2.75555556,31.6888889 2.75555556,26.5222222 Z M27.1422222,36.7177778 L14.3977778,36.7177778 L14.3977778,15.2933333 L26.7977778,15.2933333 C38.1644444,15.2933333 49.1866667,11.5044444 58.0733333,4.54666667 L58.0733333,22.4577778 C58.0733333,22.4577778 58.0733333,22.4577778 58.0733333,22.4577778 L58.0733333,28.9333333 C58.0733333,28.9333333 58.0733333,28.9333333 58.0733333,28.9333333 L58.0733333,46.9822222 C49.1866667,40.3688889 38.3022222,36.7177778 27.1422222,36.7177778 Z M63.6533333,27.5555556 L60.8288889,27.5555556 L60.8288889,23.8355556 L63.7222222,23.8355556 C64.2044444,23.8355556 64.6866667,24.0422222 65.0311111,24.3866667 C65.3755556,24.7311111 65.5822222,25.2133333 65.5822222,25.6955556 C65.5133333,26.7288889 64.6866667,27.5555556 63.6533333,27.5555556 Z" id="Shape"></path>
                </g>
            </g>
        </g>
    </g>
</svg>