<?xml version="1.0" encoding="UTF-8"?>
<svg width="120px" height="120px" viewBox="0 0 120 120" version="1.1" xmlns="http://www.w3.org/2000/svg" xmlns:xlink="http://www.w3.org/1999/xlink">
    <!-- Generator: Sketch 47 (45396) - http://www.bohemiancoding.com/sketch -->
    <title>free</title>
    <desc>Created with Sketch.</desc>
    <defs></defs>
    <g id="Page-1" stroke="none" stroke-width="1" fill="none" fill-rule="evenodd">
        <g id="free">
            <circle id="Oval-2" stroke="#79B50C" stroke-width="3" cx="60.5" cy="61.5" r="37.5"></circle>
            <path d="M53.3144531,76.2519531 C53.4160161,76.8951855 53.6953102,77.4495419 54.1523438,77.9150391 C54.6093773,78.3805362 55.1510385,78.75716 55.7773438,79.0449219 C56.403649,79.3326837 57.0722621,79.5400384 57.7832031,79.6669922 C58.4941442,79.7939459 59.1542938,79.840495 59.7636719,79.8066406 C61.0332095,79.7558591 62.1207637,79.476565 63.0263672,78.96875 C63.9319707,78.460935 64.6767549,77.8007853 65.2607422,76.9882812 C65.8447295,76.1757772 66.2721341,75.2532604 66.5429688,74.2207031 C66.8138034,73.1881459 66.9492188,72.1217503 66.9492188,71.0214844 C66.9492188,70.378252 66.9195967,69.6757851 66.8603516,68.9140625 C66.8011065,68.1523399 66.6783863,67.3906288 66.4921875,66.6289062 C66.3059887,65.8671837 66.0309263,65.1350947 65.6669922,64.4326172 C65.3030581,63.7301397 64.8248728,63.1038439 64.2324219,62.5537109 C63.639971,62.003578 62.907882,61.5677099 62.0361328,61.2460938 C61.1643837,60.9244776 60.1191467,60.7636719 58.9003906,60.7636719 C58.4602843,60.7636719 57.9355499,60.8059892 57.3261719,60.890625 C56.7167938,60.9752608 56.0947297,61.0937492 55.4599609,61.2460938 C54.8251921,61.3984383 54.203128,61.588866 53.59375,61.8173828 C52.984372,62.0458996 52.4596376,62.304035 52.0195312,62.5917969 L50.5722656,61.2460938 L50.4453125,44.5898438 L63.953125,44.5898438 C64.9349007,44.5898438 65.7558561,44.5221361 66.4160156,44.3867188 C67.0761752,44.2513014 67.6051412,44.0481784 68.0029297,43.7773438 C68.4007181,43.5065091 68.6842439,43.1595073 68.8535156,42.7363281 C69.0227873,42.3131489 69.1074219,41.8053415 69.1074219,41.2128906 L70.5546875,41.2128906 L70.25,48.09375 L52.8320312,48.4492188 L52.8574219,59.875 C53.7037803,59.5364566 54.7871028,59.2106135 56.1074219,58.8974609 C57.427741,58.5843083 58.8580652,58.4277344 60.3984375,58.4277344 C62.5312607,58.4277344 64.3551357,58.7705044 65.8701172,59.4560547 C67.3850987,60.141605 68.6207634,61.0387314 69.5771484,62.1474609 C70.5335334,63.2561904 71.2360004,64.5045504 71.6845703,65.8925781 C72.1331403,67.2806059 72.3574219,68.6770763 72.3574219,70.0820312 C72.3574219,72.0117284 72.0061884,73.7086515 71.3037109,75.1728516 C70.6012335,76.6370516 69.6617897,77.8642529 68.4853516,78.8544922 C67.3089134,79.8447315 65.9505285,80.5895157 64.4101562,81.0888672 C62.869784,81.5882186 61.2532637,81.8378906 59.5605469,81.8378906 C57.9016844,81.8378906 56.4205794,81.613609 55.1171875,81.1650391 C53.8137956,80.7164691 52.7135462,80.1451858 51.8164062,79.4511719 C50.9192663,78.757158 50.2337263,77.9912151 49.7597656,77.1533203 C49.2858049,76.3154255 49.0488281,75.5156288 49.0488281,74.7539062 C49.0488281,73.9752565 49.2519511,73.3108751 49.6582031,72.7607422 C50.0644552,72.2106092 50.6568971,71.91862 51.4355469,71.8847656 C51.9095076,71.8678385 52.3030583,71.9355461 52.6162109,72.0878906 C52.9293635,72.2402351 53.1790355,72.4348946 53.3652344,72.671875 C53.5514332,72.9088554 53.6826168,73.1712225 53.7587891,73.4589844 C53.8349613,73.7467462 53.8730469,74.0091134 53.8730469,74.2460938 C53.8730469,74.5846371 53.8222661,74.9316388 53.7207031,75.2871094 C53.6191401,75.6425799 53.4837248,75.9641913 53.3144531,76.2519531 Z" id="5" fill="#79B50C"></path>
            <rect id="Rectangle-8" fill="#79B50C" x="59" y="2" width="3" height="8"></rect>
            <rect id="Rectangle-8" fill="#79B50C" x="59" y="111" width="3" height="8"></rect>
            <rect id="Rectangle-8" fill="#79B50C" transform="translate(107.698385, 33.250000) rotate(-300.000000) translate(-107.698385, -33.250000) " x="106.198385" y="29.25" width="3" height="8"></rect>
            <rect id="Rectangle-8" fill="#79B50C" transform="translate(13.301615, 87.750000) rotate(-300.000000) translate(-13.301615, -87.750000) " x="11.8016155" y="83.75" width="3" height="8"></rect>
            <rect id="Rectangle-8" fill="#79B50C" transform="translate(107.698385, 87.750000) rotate(-240.000000) translate(-107.698385, -87.750000) " x="106.198385" y="83.75" width="3" height="8"></rect>
            <rect id="Rectangle-8" fill="#79B50C" transform="translate(13.301615, 33.250000) rotate(-240.000000) translate(-13.301615, -33.250000) " x="11.8016155" y="29.25" width="3" height="8"></rect>
            <rect id="Rectangle-8" fill="#79B50C" transform="translate(115.000000, 60.500000) rotate(-270.000000) translate(-115.000000, -60.500000) " x="113.5" y="56.5" width="3" height="8"></rect>
            <rect id="Rectangle-8" fill="#79B50C" transform="translate(6.000000, 60.500000) rotate(-270.000000) translate(-6.000000, -60.500000) " x="4.5" y="56.5" width="3" height="8"></rect>
            <rect id="Rectangle-8" fill="#79B50C" transform="translate(87.750000, 13.301615) rotate(-330.000000) translate(-87.750000, -13.301615) " x="86.25" y="9.30161549" width="3" height="8"></rect>
            <rect id="Rectangle-8" fill="#79B50C" transform="translate(33.250000, 107.698385) rotate(-330.000000) translate(-33.250000, -107.698385) " x="31.75" y="103.698385" width="3" height="8"></rect>
            <rect id="Rectangle-8" fill="#79B50C" transform="translate(87.750000, 107.698385) rotate(-210.000000) translate(-87.750000, -107.698385) " x="86.25" y="103.698385" width="3" height="8"></rect>
            <rect id="Rectangle-8" fill="#79B50C" transform="translate(33.250000, 13.301615) rotate(-210.000000) translate(-33.250000, -13.301615) " x="31.75" y="9.30161549" width="3" height="8"></rect>
        </g>
    </g>
</svg>