<?xml version="1.0" encoding="UTF-8"?>
<svg width="120px" height="120px" viewBox="0 0 120 120" version="1.1" xmlns="http://www.w3.org/2000/svg" xmlns:xlink="http://www.w3.org/1999/xlink">
    <!-- Generator: Sketch 47 (45396) - http://www.bohemiancoding.com/sketch -->
    <title>place</title>
    <desc>Created with Sketch.</desc>
    <defs></defs>
    <g id="Page-1" stroke="none" stroke-width="1" fill="none" fill-rule="evenodd">
        <g id="place" stroke="#444444" stroke-width="1.5" fill="#444444" fill-rule="nonzero">
            <path d="M28.0937146,30.6639458 L25.0117469,47.1672166 C24.9253358,47.6248121 25.3288235,48.1092278 25.7895324,48.1009694 L31.2340315,48.1009694 L31.2340315,68.5213694 C30.4353159,68.5213694 29.6207104,68.5213694 28.8277968,68.5213694 C28.4454568,68.5575492 28.1212712,68.9194256 28.1229279,69.307729 L28.1229279,94.4707627 C28.1229668,94.8825042 28.4934846,95.2570436 28.9007137,95.2571222 L31.2340704,95.2571222 L31.2340704,99.2133806 L32.7896415,99.2133806 L32.7896415,95.2571222 L87.2346529,95.2571222 L87.2346529,99.2133806 L88.790224,99.2133806 L88.790224,95.2571222 L91.1235807,95.2571222 C91.5308174,95.2570436 91.9013274,94.8825042 91.9013663,94.4707627 L91.9013663,69.307729 C91.9013274,68.8959874 91.5308174,68.5214481 91.1235807,68.5213694 L88.790224,68.5213694 L88.790224,48.1501267 L94.2347229,48.1013627 C94.6873429,48.0934975 95.073074,47.6171829 94.9882029,47.1676099 L91.8478863,30.6643391 C91.7915751,30.3030132 91.456104,30.0075188 91.0943674,30.0005188 L28.8715001,30.0005188 C28.4985401,29.9863615 28.2176924,30.2632941 28.0937146,30.6639458 L28.0937146,30.6639458 Z M29.5034526,31.5731593 L90.4381096,31.5731593 L93.2867596,46.528329 C70.4393585,46.5888908 46.4492618,46.528329 26.7131512,46.528329 L29.5034526,31.5731593 Z M32.7896026,48.1009694 L87.234614,48.1009694 L87.234614,68.5213694 L32.7896026,68.5213694 L32.7896026,48.1009694 Z M29.6784604,70.0940885 L90.3457563,70.0940885 L90.3457563,93.6844031 L29.6784604,93.6844031 L29.6784604,70.0940885 Z M51.6509151,75.2298076 C50.6192707,75.5790211 49.6926651,76.205875 48.9043563,76.876302 C48.4956963,77.285684 48.389304,77.7225155 48.6126118,78.2509761 C49.4200696,79.774066 50.6128307,80.82092 51.4563851,81.5191896 C53.751934,83.1709537 56.5763407,83.7455829 58.893924,83.9025717 C59.7840363,84.4970211 60.339074,85.3026503 60.7411696,86.2125717 C60.467664,86.9697514 60.2170174,87.8311447 60.0363007,88.8665155 C59.9476574,89.2793582 60.251014,89.735302 60.6626918,89.8079761 C61.074354,89.8803357 61.5126007,89.5555829 61.5675663,89.1367627 C61.9811651,87.2800323 62.532034,85.4408413 63.7552451,84.0516952 C65.4260518,83.0740548 67.4418885,83.3107177 69.0538329,82.7243694 C69.9490007,82.1835604 70.3757363,81.4301559 70.6337096,80.8322458 C70.8916829,80.2343357 71.0106285,79.8045042 71.4601063,79.333302 C71.7964718,78.971111 71.6637751,78.28692 71.2170507,78.080066 C69.1174007,77.0468188 66.8897363,77.1177627 64.9704918,78.2523919 C63.6468307,79.2732908 62.8144296,80.7444705 62.9531151,82.6018301 C62.4419518,83.1535717 61.9922329,83.734493 61.5919885,84.3956391 C61.1538974,83.7222233 60.4925451,83.1585267 59.9391951,82.7001447 C59.6102029,80.5558638 58.5002829,76.8841672 55.1752518,75.180729 C53.9634118,74.7784256 52.7082729,74.8700548 51.6509151,75.229493 L51.6509151,75.2298076 Z M54.4946885,76.6059761 C56.7398996,77.7745829 57.6691651,80.1709424 58.0919496,82.0120997 C56.0920729,82.2892683 53.6635163,81.1967964 52.4530063,80.3165267 C51.5842829,79.5428301 50.7263474,78.7124256 50.1925663,77.8839874 C50.7835996,77.434257 51.4330051,76.9757177 52.1613318,76.7289874 C53.0128663,76.4102908 53.7347918,76.3420997 54.4946885,76.6059761 L54.4946885,76.6059761 Z M69.7587407,79.2598413 C69.5903518,79.5893919 69.3069685,79.9695155 69.1997051,80.2182908 C68.9877296,80.7095492 68.8175207,80.9825492 68.2760863,81.3240548 C66.9614629,81.5032233 65.782834,81.6237964 64.5816029,81.9875604 C64.6351918,81.0004031 65.0054374,80.2215941 65.8941185,79.5301672 C67.2586518,78.7412121 68.4522451,78.759066 69.7587407,79.2598413 L69.7587407,79.2598413 Z" id="Shape"></path>
        </g>
    </g>
</svg>