<?xml version="1.0" encoding="UTF-8"?>
<svg width="120px" height="120px" viewBox="0 0 120 120" version="1.1" xmlns="http://www.w3.org/2000/svg" xmlns:xlink="http://www.w3.org/1999/xlink">
    <!-- Generator: Sketch 47 (45396) - http://www.bohemiancoding.com/sketch -->
    <title>seo</title>
    <desc>Created with Sketch.</desc>
    <defs></defs>
    <g id="Page-1" stroke="none" stroke-width="1" fill="none" fill-rule="evenodd">
        <g id="seo" stroke="#979797" fill-rule="nonzero" fill="#000000">
            <path d="M92.0222222,50.9466667 C92.2288889,50.9466667 92.5044444,50.8777778 92.7111111,50.74 L100.426667,46.2622222 C101.115556,45.8488889 101.322222,45.0222222 100.908889,44.4022222 C100.495556,43.7133333 99.6688889,43.5066667 99.0488889,43.92 L91.3333333,48.3288889 C90.6444444,48.7422222 90.4377778,49.5688889 90.8511111,50.1888889 C91.0577778,50.6711111 91.54,50.9466667 92.0222222,50.9466667 Z" id="Shape"></path>
            <path d="M100.357778,72.5777778 L92.7111111,68.1688889 C92.0222222,67.8244444 91.1955556,68.0311111 90.8511111,68.6511111 C90.5066667,69.2711111 90.7133333,70.1666667 91.3333333,70.5111111 L99.0488889,74.92 C99.2555556,75.0577778 99.5311111,75.1266667 99.7377778,75.1266667 C100.22,75.1266667 100.702222,74.8511111 100.908889,74.4377778 C101.253333,73.7488889 101.046667,72.9222222 100.357778,72.5777778 Z" id="Shape"></path>
            <path d="M100.288889,58.0422222 C100.288889,58.0422222 100.288889,58.0422222 100.288889,58.0422222 L91.4022222,58.1111111 C90.6444444,58.1111111 90.0244444,58.7311111 90.0244444,59.4888889 C90.0244444,60.2466667 90.6444444,60.8666667 91.4022222,60.8666667 C91.4022222,60.8666667 91.4022222,60.8666667 91.4022222,60.8666667 L100.288889,60.7977778 C101.046667,60.7977778 101.666667,60.1777778 101.666667,59.42 C101.666667,58.5933333 101.046667,58.0422222 100.288889,58.0422222 Z" id="Shape"></path>
            <path d="M82.6533333,55.08 L79.8288889,55.08 L79.8288889,35.5844444 C79.8288889,35.0333333 79.4844444,34.5511111 79.0022222,34.3444444 C78.52,34.1377778 77.9,34.2066667 77.5555556,34.5511111 C68.7377778,42.2666667 57.44,46.5377778 45.7977778,46.5377778 L32.02,46.5377778 C24.8555556,46.5377778 19,52.3933333 19,59.5577778 L19,60.5222222 C19,67.6866667 24.8555556,73.5422222 32.02,73.5422222 C32.1577778,73.5422222 32.2955556,73.5422222 32.4333333,73.4733333 L37.2555556,73.4733333 L37.2555556,89.3177778 C37.2555556,91.04 37.9444444,92.6244444 39.1155556,93.8644444 C40.2866667,95.0355556 41.94,95.7244444 43.5933333,95.7244444 C43.5933333,95.7244444 43.5933333,95.7244444 43.6622222,95.7244444 C47.1755556,95.7244444 50.0688889,92.8311111 50.0688889,89.2488889 L50.0688889,77.6066667 C50.0688889,76.8488889 49.4488889,76.2288889 48.6911111,76.2288889 C47.9333333,76.2288889 47.3133333,76.8488889 47.3133333,77.6066667 L47.3133333,89.2488889 C47.3133333,91.3155556 45.66,92.9688889 43.6622222,92.9688889 C42.6977778,92.9688889 41.8022222,92.6244444 41.1133333,91.9355556 C40.4244444,91.2466667 40.0111111,90.3511111 40.0111111,89.3177778 L40.0111111,73.4733333 L46.1422222,73.4733333 C57.6466667,73.4733333 68.8066667,77.5377778 77.5555556,84.9088889 C77.8311111,85.1155556 78.1066667,85.2533333 78.4511111,85.2533333 C78.6577778,85.2533333 78.8644444,85.1844444 79.0022222,85.1155556 C79.4844444,84.9088889 79.8288889,84.4266667 79.8288889,83.8755556 L79.8288889,64.3111111 L82.7222222,64.3111111 C85.2711111,64.3111111 87.3377778,62.2444444 87.3377778,59.6955556 C87.3377778,58.4555556 86.8555556,57.2844444 85.96,56.4577778 C85.0644444,55.5622222 83.8933333,55.08 82.6533333,55.08 Z M21.7555556,60.5222222 L21.7555556,59.5577778 C21.7555556,54.3911111 25.6133333,50.0511111 30.6422222,49.3622222 L30.6422222,70.6488889 C25.6133333,70.0288889 21.7555556,65.6888889 21.7555556,60.5222222 Z M46.1422222,70.7177778 L33.3977778,70.7177778 L33.3977778,49.2933333 L45.7977778,49.2933333 C57.1644444,49.2933333 68.1866667,45.5044444 77.0733333,38.5466667 L77.0733333,56.4577778 C77.0733333,56.4577778 77.0733333,56.4577778 77.0733333,56.4577778 L77.0733333,62.9333333 C77.0733333,62.9333333 77.0733333,62.9333333 77.0733333,62.9333333 L77.0733333,80.9822222 C68.1866667,74.3688889 57.3022222,70.7177778 46.1422222,70.7177778 Z M82.6533333,61.5555556 L79.8288889,61.5555556 L79.8288889,57.8355556 L82.7222222,57.8355556 C83.2044444,57.8355556 83.6866667,58.0422222 84.0311111,58.3866667 C84.3755556,58.7311111 84.5822222,59.2133333 84.5822222,59.6955556 C84.5133333,60.7288889 83.6866667,61.5555556 82.6533333,61.5555556 Z" id="Shape"></path>
        </g>
    </g>
</svg>