<?xml version="1.0" encoding="UTF-8"?>
<svg width="117px" height="117px" viewBox="0 0 117 117" version="1.1" xmlns="http://www.w3.org/2000/svg" xmlns:xlink="http://www.w3.org/1999/xlink">
    <!-- Generator: Sketch 47 (45396) - http://www.bohemiancoding.com/sketch -->
    <title>5days</title>
    <desc>Created with Sketch.</desc>
    <defs></defs>
    <g id="Page-1" stroke="none" stroke-width="1" fill="none" fill-rule="evenodd">
        <g id="Farm-03" transform="translate(-303.000000, -5499.000000)">
            <g id="5days" transform="translate(303.000000, 5499.000000)">
                <circle id="Oval-2" stroke="#79B50C" stroke-width="3" cx="58.5" cy="59.5" r="37.5"></circle>
                <text id="5" font-family="Lora-Regular, Lora" font-size="52" font-weight="normal" fill="#79B50C">
                    <tspan x="44.3574219" y="79">5</tspan>
                </text>
                <rect id="Rectangle-8" fill="#79B50C" x="57" y="0" width="3" height="8"></rect>
                <rect id="Rectangle-8" fill="#79B50C" x="57" y="109" width="3" height="8"></rect>
                <g id="Group-13" transform="translate(58.500000, 58.500000) rotate(-300.000000) translate(-58.500000, -58.500000) translate(57.000000, 0.000000)" fill="#79B50C">
                    <rect id="Rectangle-8" x="0" y="0" width="3" height="8"></rect>
                    <rect id="Rectangle-8" x="0" y="109" width="3" height="8"></rect>
                </g>
                <g id="Group-13" transform="translate(58.500000, 58.500000) rotate(-240.000000) translate(-58.500000, -58.500000) translate(57.000000, 0.000000)" fill="#79B50C">
                    <rect id="Rectangle-8" x="0" y="0" width="3" height="8"></rect>
                    <rect id="Rectangle-8" x="0" y="109" width="3" height="8"></rect>
                </g>
                <g id="Group-13" transform="translate(58.500000, 58.500000) rotate(-270.000000) translate(-58.500000, -58.500000) translate(57.000000, 0.000000)" fill="#79B50C">
                    <rect id="Rectangle-8" x="0" y="0" width="3" height="8"></rect>
                    <rect id="Rectangle-8" x="0" y="109" width="3" height="8"></rect>
                </g>
                <g id="Group-13" transform="translate(58.500000, 58.500000) rotate(-330.000000) translate(-58.500000, -58.500000) translate(57.000000, 0.000000)" fill="#79B50C">
                    <rect id="Rectangle-8" x="0" y="0" width="3" height="8"></rect>
                    <rect id="Rectangle-8" x="0" y="109" width="3" height="8"></rect>
                </g>
                <g id="Group-13" transform="translate(58.500000, 58.500000) rotate(-210.000000) translate(-58.500000, -58.500000) translate(57.000000, 0.000000)" fill="#79B50C">
                    <rect id="Rectangle-8" x="0" y="0" width="3" height="8"></rect>
                    <rect id="Rectangle-8" x="0" y="109" width="3" height="8"></rect>
                </g>
            </g>
        </g>
    </g>
</svg>