<?xml version="1.0" encoding="UTF-8"?>
<svg width="72px" height="71px" viewBox="0 0 72 71" version="1.1" xmlns="http://www.w3.org/2000/svg" xmlns:xlink="http://www.w3.org/1999/xlink">
    <!-- Generator: Sketch 47 (45396) - http://www.bohemiancoding.com/sketch -->
    <title>ready</title>
    <desc>Created with Sketch.</desc>
    <defs></defs>
    <g id="Page-1" stroke="none" stroke-width="1" fill="none" fill-rule="evenodd">
        <g id="Farm-03" transform="translate(-607.000000, -5523.000000)" stroke-width="1.5" stroke="#444444" fill="#444444" fill-rule="nonzero">
            <g id="ready" transform="translate(608.000000, 5524.000000)">
                <g id="Group">
                    <path d="M3.09371458,0.663945809 L0.0117468829,17.1672166 C-0.0746642282,17.6248121 0.32882355,18.1092278 0.789532361,18.1009694 L6.23403148,18.1009694 L6.23403148,38.5213694 C5.43531593,38.5213694 4.62071037,38.5213694 3.82779681,38.5213694 C3.44545681,38.5575492 3.12127125,38.9194256 3.12292792,39.307729 L3.12292792,64.4707627 C3.12296681,64.8825042 3.49348458,65.2570436 3.90071371,65.2571222 L6.23407037,65.2571222 L6.23407037,69.2133806 L7.78964148,69.2133806 L7.78964148,65.2571222 L62.2346529,65.2571222 L62.2346529,69.2133806 L63.790224,69.2133806 L63.790224,65.2571222 L66.1235807,65.2571222 C66.5308174,65.2570436 66.9013274,64.8825042 66.9013663,64.4707627 L66.9013663,39.307729 C66.9013274,38.8959874 66.5308174,38.5214481 66.1235807,38.5213694 L63.790224,38.5213694 L63.790224,18.1501267 L69.2347229,18.1013627 C69.6873429,18.0934975 70.073074,17.6171829 69.9882029,17.1676099 L66.8478863,0.664339068 C66.7915751,0.303013225 66.456104,0.00751884314 66.0943674,0.000518843141 L3.87150014,0.000518843141 C3.49854014,-0.0136384602 3.21769236,0.263294124 3.09371458,0.663945809 L3.09371458,0.663945809 Z M4.50345259,1.57315929 L65.4381096,1.57315929 L68.2867596,16.528329 C45.4393585,16.5888908 21.4492618,16.528329 1.71315125,16.528329 L4.50345259,1.57315929 Z M7.78960259,18.1009694 L62.234614,18.1009694 L62.234614,38.5213694 L7.78960259,38.5213694 L7.78960259,18.1009694 Z M4.67846037,40.0940885 L65.3457563,40.0940885 L65.3457563,63.6844031 L4.67846037,63.6844031 L4.67846037,40.0940885 Z M26.6509151,45.2298076 C25.6192707,45.5790211 24.6926651,46.205875 23.9043563,46.876302 C23.4956963,47.285684 23.389304,47.7225155 23.6126118,48.2509761 C24.4200696,49.774066 25.6128307,50.82092 26.4563851,51.5191896 C28.751934,53.1709537 31.5763407,53.7455829 33.893924,53.9025717 C34.7840363,54.4970211 35.339074,55.3026503 35.7411696,56.2125717 C35.467664,56.9697514 35.2170174,57.8311447 35.0363007,58.8665155 C34.9476574,59.2793582 35.251014,59.735302 35.6626918,59.8079761 C36.074354,59.8803357 36.5126007,59.5555829 36.5675663,59.1367627 C36.9811651,57.2800323 37.532034,55.4408413 38.7552451,54.0516952 C40.4260518,53.0740548 42.4418885,53.3107177 44.0538329,52.7243694 C44.9490007,52.1835604 45.3757363,51.4301559 45.6337096,50.8322458 C45.8916829,50.2343357 46.0106285,49.8045042 46.4601063,49.333302 C46.7964718,48.971111 46.6637751,48.28692 46.2170507,48.080066 C44.1174007,47.0468188 41.8897363,47.1177627 39.9704918,48.2523919 C38.6468307,49.2732908 37.8144296,50.7444705 37.9531151,52.6018301 C37.4419518,53.1535717 36.9922329,53.734493 36.5919885,54.3956391 C36.1538974,53.7222233 35.4925451,53.1585267 34.9391951,52.7001447 C34.6102029,50.5558638 33.5002829,46.8841672 30.1752518,45.180729 C28.9634118,44.7784256 27.7082729,44.8700548 26.6509151,45.229493 L26.6509151,45.2298076 Z M29.4946885,46.6059761 C31.7398996,47.7745829 32.6691651,50.1709424 33.0919496,52.0120997 C31.0920729,52.2892683 28.6635163,51.1967964 27.4530063,50.3165267 C26.5842829,49.5428301 25.7263474,48.7124256 25.1925663,47.8839874 C25.7835996,47.434257 26.4330051,46.9757177 27.1613318,46.7289874 C28.0128663,46.4102908 28.7347918,46.3420997 29.4946885,46.6059761 L29.4946885,46.6059761 Z M44.7587407,49.2598413 C44.5903518,49.5893919 44.3069685,49.9695155 44.1997051,50.2182908 C43.9877296,50.7095492 43.8175207,50.9825492 43.2760863,51.3240548 C41.9614629,51.5032233 40.782834,51.6237964 39.5816029,51.9875604 C39.6351918,51.0004031 40.0054374,50.2215941 40.8941185,49.5301672 C42.2586518,48.7412121 43.4522451,48.759066 44.7587407,49.2598413 L44.7587407,49.2598413 Z" id="Shape"></path>
                </g>
            </g>
        </g>
    </g>
</svg>